<svg xmlns="http://www.w3.org/2000/svg" viewBox="0 0 120 120" fill="none">
  <!-- Background circle -->
  <circle cx="60" cy="60" r="58" fill="#1e3a8a" stroke="#0ea5e9" stroke-width="4"/>
  
  <!-- Ship anchor -->
  <g transform="translate(60, 35)">
    <!-- Anchor ring -->
    <circle cx="0" cy="0" r="6" fill="none" stroke="#fbbf24" stroke-width="2"/>
    
    <!-- Anchor shaft -->
    <line x1="0" y1="6" x2="0" y2="35" stroke="#fbbf24" stroke-width="3"/>
    
    <!-- Anchor crossbar -->
    <line x1="-12" y1="20" x2="12" y2="20" stroke="#fbbf24" stroke-width="3"/>
    
    <!-- Left fluke -->
    <path d="M -8 30 L -15 35 L -12 38 L -5 33 Z" fill="#fbbf24"/>
    
    <!-- Right fluke -->
    <path d="M 8 30 L 15 35 L 12 38 L 5 33 Z" fill="#fbbf24"/>
  </g>
  
  <!-- Waves at bottom -->
  <g transform="translate(0, 85)">
    <path d="M 15 0 Q 25 -5 35 0 T 55 0 T 75 0 T 95 0 T 115 0" 
          stroke="#0ea5e9" stroke-width="2" fill="none"/>
    <path d="M 10 5 Q 20 0 30 5 T 50 5 T 70 5 T 90 5 T 110 5" 
          stroke="#0ea5e9" stroke-width="2" fill="none"/>
  </g>
  
  <!-- Stars representing excellence -->
  <g fill="#fbbf24">
    <polygon points="25,25 27,31 33,31 28,35 30,41 25,37 20,41 22,35 17,31 23,31" />
    <polygon points="95,25 97,31 103,31 98,35 100,41 95,37 90,41 92,35 87,31 93,31" />
    <polygon points="25,95 27,101 33,101 28,105 30,111 25,107 20,111 22,105 17,101 23,101" />
    <polygon points="95,95 97,101 103,101 98,105 100,111 95,107 90,111 92,105 87,101 93,101" />
  </g>
  
  <!-- Text placeholder for "138" -->
  <text x="60" y="100" font-family="Arial, sans-serif" font-size="16" font-weight="bold" 
        text-anchor="middle" fill="#fbbf24">138</text>
</svg>