<svg xmlns="http://www.w3.org/2000/svg" viewBox="0 0 100 100">
    <!-- Wolf Head -->
    <path d="M50 10 Q35 15 25 30 Q20 40 25 50 Q30 60 40 65 Q45 70 50 70 Q55 70 60 65 Q70 60 75 50 Q80 40 75 30 Q65 15 50 10 Z" 
          fill="#1f2937"/>
    
    <!-- Wolf Ears -->
    <path d="M35 25 Q30 15 40 12 Q45 15 42 25 Z" fill="#1f2937"/>
    <path d="M65 25 Q70 15 60 12 Q55 15 58 25 Z" fill="#1f2937"/>
    
    <!-- Wolf Snout -->
    <path d="M45 55 Q47 65 50 68 Q53 65 55 55 Q52 60 50 62 Q48 60 45 55 Z" fill="#1f2937"/>
    
    <!-- Wolf Eyes -->
    <circle cx="42" cy="40" r="3" fill="white"/>
    <circle cx="58" cy="40" r="3" fill="white"/>
    
    <!-- Eye pupils -->
    <circle cx="42" cy="40" r="1.5" fill="#1f2937"/>
    <circle cx="58" cy="40" r="1.5" fill="#1f2937"/>
    
    <!-- Wolf nose -->
    <circle cx="50" cy="52" r="1.5" fill="white"/>
</svg>